# AST/ASF file generated using VICON BodyLanguage
# -----------------------------------------------
:version 1.10
:name VICON
:units
  mass 1.0
  length 0.45
  angle deg
:documentation
   .ast/.asf automatically generated from VICON data using
   VICON BodyBuilder and BodyLanguage model FoxedUp or BRILLIANT.MOD
:root
   order TX TY TZ RX RY RZ
   axis XYZ
   position 0 0 0  
   orientation 0 0 0 
:bonedata
  begin
     id 1 
     name lhipjoint
     direction 0.714689 -0.624256 0.315473 
     length 2.45343 
     axis 0 0 0  XYZ
  end
  begin
     id 2 
     name lfemur
     direction 0.34202 -0.939693 0  
     length 6.59069  
     axis 0 0 20  XYZ
    dof rx ry rz
    limits (-160.0 20.0)
           (-70.0 70.0)
           (-60.0 70.0)
  end
  begin
     id 3 
     name ltibia
     direction 0.34202 -0.939693 0   
     length 6.73476   
     axis 0 0 20   XYZ
    dof rx
    limits (-10.0 170.0)
  end
  begin
     id 4 
     name lfoot
     direction 0.0718085 -0.197292 0.977711   
     length 1.52607   
     axis -90 7.62852e-016 20   XYZ
    dof rx rz
    limits (-45.0 90.0)
           (-70.0 20.0)
  end
  begin
     id 5 
     name ltoes
     direction 1.53553e-011 -4.22024e-011 1   
     length 0.777832   
     axis -90 7.62852e-016 20   XYZ
    dof rx
    limits (-90.0 20.0)
  end
  begin
     id 6 
     name rhipjoint
     direction -0.727419 -0.612432 0.309497   
     length 2.50079  
     axis 0 0 0  XYZ 
  end
  begin
     id 7 
     name rfemur
     direction -0.34202 -0.939693 0   
     length 6.51665   
     axis 0 0 -20   XYZ
    dof rx ry rz
    limits (-160.0 20.0)
           (-70.0 70.0)
           (-70.0 60.0)
  end
  begin
     id 8 
     name rtibia
     direction -0.34202 -0.939693 0   
     length 6.48919   
     axis 0 0 -20   XYZ
    dof rx
    limits (-10.0 170.0)
 end
 begin
     id 9 
     name rfoot
     direction -0.112205 -0.308282 0.944655   
     length 1.68717  
     axis -90 -7.62852e-016 -20   XYZ
    dof rx rz
    limits (-45.0 90.0)
           (-20.0 70.0)
  end
  begin
     id 10 
     name rtoes
     direction -1.53583e-011 -4.21993e-011 1   
     length 0.846859   
     axis -90 -7.62852e-016 -20   XYZ
    dof rx
    limits (-90.0 20.0)
  end
  begin
     id 11 
     name lowerback
     direction -0.00119603 0.996364 -0.0851956   
     length 1.67242   
     axis 0 0 0   XYZ
    dof rx ry rz
    limits (-20.0 45.0)
           (-30.0 30.0)
           (-30.0 30.0)
  end
  begin
     id 12 
     name upperback
     direction -0.00531001 0.998318 0.0577248   
     length 1.64819   
     axis 0 0 0   XYZ
    dof rx ry rz
    limits (-20.0 45.0)
           (-30.0 30.0)
           (-30.0 30.0)
  end
  begin
     id 13 
     name thorax
     direction -0.00653676 0.995132 0.0983291   
     length 1.67429   
     axis 0 0 0   XYZ
    dof rx ry rz
    limits (-20.0 45.0)
           (-30.0 30.0)
           (-30.0 30.0)
  end
  begin
     id 14 
     name lowerneck
     direction 0.0141424 0.999886 0.00525412   
     length 1.59623   
     axis 0 0 0   XYZ
    dof rx ry rz
    limits (-20.0 45.0)
           (-30.0 30.0)
           (-30.0 30.0)
  end
  begin
     id 15 
     name upperneck
     direction -0.0640064 0.987178 -0.146232   
     length 1.59576   
     axis 0 0 0   XYZ
    dof rx ry rz
    limits (-20.0 45.0)
           (-30.0 30.0)
           (-30.0 30.0)
  end
  begin
     id 16
     name head
     direction -0.0222942 0.998496 -0.0500859  
     length 1.60959  
     axis 0 0 0   XYZ
    dof rx ry rz
    limits (-20.0 45.0)
           (-30.0 30.0)
           (-30.0 30.0)
  end
  begin
     id 17 
     name lclavicle
     direction 0.908549 0.392612 0.142806  
     length 2.80649  
     axis 0 0 0   XYZ
    dof ry rz
    limits (-20.0 10.0)
           (0.0 20.0)
  end
  begin
     id 18 
     name lhumerus
     direction 1 -4.48968e-011 1.08832e-028   
     length 4.2884   
     axis -180 -30 -90   XYZ
    dof rx ry rz
    limits (-60.0 90.0)
           (-90.0 90.0)
           (-90.0 90.0)
  end
  begin
     id 19
     name lradius
     direction 1 -4.48952e-011 -3.02642e-028   
     length 3.06552   
     axis -180 -30 -90   XYZ
    dof rx
    limits (-10.0 170.0)
  end
  begin
     id 20
     name lwrist
     direction 1 -4.49014e-011 1.58672e-027   
     length 1.53276   
     axis -1.65735e-015 90 90   XYZ
    dof ry
    limits (-180.0 0.0)
 end
  begin
     id 21 
     name lhand
     direction 1 -4.48928e-011 3.17344e-027   
     length 0.753045   
     axis -2.02492e-015 90 90   XYZ
    dof rx rz
    limits (-90.0 90.0)
           (-45.0 45.0)
  end
  begin
     id 22 
     name lfingers
     direction 1 -4.48958e-011 6.34687e-027   
     length 0.607124   
     axis -4.04985e-015 90 90   XYZ
    dof rx
    limits (0.0 90.0)
  end
  begin
     id 23
     name lthumb
     direction 0.707107 -6.34905e-011 0.707107   
     length 0.871712   
     axis -90 45 2.85299e-015   XYZ
    dof rx rz
    limits (-45.0 45.0)
           (-45.0 45.0)
  end
  begin
     id 24 
     name rclavicle
     direction -0.885098 0.45949 0.0739604   
     length 2.9478  
     axis 0 0 0   XYZ 
    dof ry rz
    limits (-10.0 20.0)
           (-20.0 0.0)
  end
  begin
     id 25 
     name rhumerus
     direction -1 -4.4898e-011 -2.61739e-027  
     length 4.52172   
     axis -180 30 90   XYZ
    dof rx ry rz
    limits (-90.0 60.0)
           (-90.0 90.0)
           (-90.0 90.0)
  end
  begin
     id 26 
     name rradius
     direction -1 -4.48945e-011 9.02552e-028   
     length 2.8914   
     axis -180 30 90   XYZ
    dof rx
    limits (-10.0 170.0)
  end
  begin
     id 27 
     name rwrist
     direction -1 -4.49018e-011 1.58672e-027   
     length 1.4457   
     axis -1.65735e-015 -90 -90   XYZ
    dof ry
    limits (-180.0 0.0)
  end
  begin
     id 28
     name rhand
     direction -1 -4.48825e-011 3.17344e-027   
     length 0.680541   
     axis -2.02492e-015 -90 -90   XYZ
    dof rx rz
    limits (-90.0 90.0)
           (-45.0 45.0)
  end
  begin
     id 29
     name rfingers
     direction -1 -4.49067e-011 6.34687e-027   
     length 0.54867   
     axis -4.04985e-015 -90 -90   XYZ
    dof rx
    limits (0.0 90.0)
  end
  begin
     id 30
     name rthumb
     direction -0.707107 -6.34833e-011 0.707107   
     length 0.787783   
     axis -90 -45 -2.85299e-015   XYZ
    dof rx rz
    limits (-45.0 45.0)
           (-45.0 45.0)
  end
:hierarchy
  begin
    root lhipjoint rhipjoint lowerback
    lhipjoint lfemur
    lfemur ltibia
    ltibia lfoot
    lfoot ltoes
    rhipjoint rfemur
    rfemur rtibia
    rtibia rfoot
    rfoot rtoes
    lowerback upperback
    upperback thorax
    thorax lowerneck lclavicle rclavicle
    lowerneck upperneck
    upperneck head
    lclavicle lhumerus
    lhumerus lradius
    lradius lwrist
    lwrist lhand lthumb
    lhand lfingers
    rclavicle rhumerus
    rhumerus rradius
    rradius rwrist
    rwrist rhand rthumb
    rhand rfingers
  end

#!OML:ASF E:\emotionWalksFemale\Project 1\Capture day 1\Session 1\Female1.ASF
:FULLY-SPECIFIED
:DEGREES
112
root 8.47417 15.5231 23.1141 -180.421 1.23309 -179.998
lowerback 5.68761 1.43068 0.612466
upperback -4.48833 2.08058 -0.0826759
thorax -7.87852 1.02876 -0.694678
lowerneck -8.64069 -1.84463 -5.3772
upperneck 18.5358 -3.35682 4.96428
head 7.26066 -1.84728 2.17849
rclavicle 1.16475e-016 6.52262e-017
rhumerus -47.9261 18.8205 -100.616
rradius 34.2069
rwrist 22.6547
rhand -1.07543 -50.354
rfingers 7.12502
rthumb -155.44 -258.799
lclavicle 1.16475e-016 6.52262e-017
lhumerus -44.5754 -10.0742 94.4741
lradius 36.215
lwrist -10.4771
lhand -2.1467 -38.2256
lfingers 7.12502
lthumb 23.5327 -9.64517
rfemur 1.3887 16.1786 26.7491
rtibia 15.0293
rfoot -17.138 -29.6157
rtoes 3.86383
lfemur -3.81149 -19.8641 -25.8164
ltibia 20.6647
lfoot -20.8255 18.4563
ltoes -17.9944
113
root 8.47527 15.5225 23.1166 -180.427 1.25194 -179.944
lowerback 5.72434 1.44096 0.64056
upperback -4.4968 2.09935 -0.0569478
thorax -7.90888 1.03697 -0.687066
lowerneck -8.63136 -1.84558 -5.34793
upperneck 18.5286 -3.34954 4.90073
head 7.25487 -1.84688 2.15355
rclavicle 3.92219e-014 5.14977e-015
rhumerus -47.9623 18.81 -100.581
rradius 34.229
rwrist 22.6699
rhand -1.20743 -50.2528
rfingers 7.12502
rthumb -155.567 -258.715
lclavicle 3.92219e-014 5.14977e-015
lhumerus -44.5618 -10.0868 94.4885
lradius 36.177
lwrist -10.4168
lhand -2.07704 -38.2907
lfingers 7.12502
lthumb 23.5995 -9.71887
rfemur 1.41994 16.183 26.8074
rtibia 14.9523
rfoot -17.0937 -29.6111
rtoes 3.78004
lfemur -3.8502 -19.8889 -25.7488
ltibia 20.709
lfoot -20.9231 18.4873
ltoes -18.1527
114
root 8.47571 15.524 23.1211 -180.339 1.28913 -179.881
lowerback 5.70575 1.4512 0.709802
upperback -4.5419 2.12313 -0.0563111
thorax -7.9439 1.0458 -0.728619
lowerneck -8.64752 -1.86144 -5.28316
upperneck 18.5369 -3.3716 4.85003
head 7.25993 -1.85704 2.12399
rclavicle -1.05798e-014 -1.86516e-015
rhumerus -47.9897 18.7838 -100.579
rradius 34.2596
rwrist 22.7184
rhand -1.13476 -50.3245
rfingers 7.12502
rthumb -155.497 -258.777
lclavicle -1.05798e-014 -1.86516e-015
lhumerus -44.519 -10.334 94.5783
lradius 36.0352
lwrist -10.1951
lhand -2.21535 -38.4135
lfingers 7.12502
lthumb 23.4668 -9.82464
rfemur 1.31036 16.215 26.8381
rtibia 14.9197
rfoot -17.0964 -29.5246
rtoes 4.33021
lfemur -3.97251 -19.9102 -25.6433
ltibia 20.7272
lfoot -20.8673 18.6206
ltoes -19.1726
115
root 8.47681 15.5249 23.124 -180.305 1.35178 -179.888
lowerback 5.69076 1.4624 0.666331
upperback -4.55499 2.13584 -0.0470534
thorax -7.95097 1.05513 -0.695992
lowerneck -8.67847 -1.85834 -5.26915
upperneck 18.5241 -3.36558 4.8555
head 7.26084 -1.8511 2.12378
rclavicle 1.09603e-015 6.3052e-016
rhumerus -48.0489 18.8181 -100.577
rradius 34.3665
rwrist 22.6093
rhand -1.03384 -50.2766
rfingers 7.12502
rthumb -155.4 -258.716
lclavicle 1.09603e-015 6.3052e-016
lhumerus -44.5158 -10.3369 94.5914
lradius 35.9138
lwrist -10.3457
lhand -2.51174 -38.6204
lfingers 7.12502
lthumb 23.1825 -9.99545
rfemur 1.2526 16.2341 26.8142
rtibia 14.9197
rfoot -16.986 -29.4338
rtoes 4.34031
lfemur -4.01173 -19.9562 -25.6348
ltibia 20.7328
lfoot -20.9013 18.6797
ltoes -19.1809
116
root 8.47718 15.5238 23.1235 -180.338 1.4188 -179.913
lowerback 5.71406 1.48266 0.639926
upperback -4.55421 2.15947 -0.0586766
thorax -7.96391 1.06748 -0.697078
lowerneck -8.57753 -1.83863 -5.27673
upperneck 18.3865 -3.34132 4.91788
head 7.19782 -1.83334 2.14838
rclavicle -2.7222e-014 -1.57475e-015
rhumerus -48.076 18.801 -100.575
rradius 34.3713
rwrist 22.5614
rhand -1.13306 -50.0556
rfingers 7.12502
rthumb -155.495 -258.508
lclavicle -2.7222e-014 -1.57475e-015
lhumerus -44.5962 -10.2806 94.5632
lradius 35.9227
lwrist -10.5546
lhand -2.29082 -38.5808
lfingers 7.12502
lthumb 23.3944 -9.9827
rfemur 1.27535 16.2166 26.7905
rtibia 14.9197
rfoot -16.732 -29.4322
rtoes 3.30429
lfemur -3.96178 -19.9711 -25.6812
ltibia 20.7447
lfoot -21.0307 18.725
ltoes -19.0368
